<mxfile host="app.diagrams.net" agent="Mozilla/5.0 (Windows NT 10.0; Win64; x64) AppleWebKit/537.36 (KHTML, like Gecko) Chrome/129.0.0.0 Safari/537.36 Edg/129.0.0.0" version="24.7.16">
  <diagram name="Page-1" id="929967ad-93f9-6ef4-fab6-5d389245f69c">
    <mxGraphModel dx="868" dy="473" grid="1" gridSize="10" guides="1" tooltips="1" connect="1" arrows="1" fold="1" page="1" pageScale="1.5" pageWidth="1169" pageHeight="826" background="none" math="0" shadow="0">
      <root>
        <mxCell id="0" style=";html=1;" />
        <mxCell id="1" style=";html=1;" parent="0" />
        <mxCell id="1672d66443f91eb5-1" value="&lt;p style=&quot;margin: 0px ; margin-top: 4px ; margin-left: 10px ; text-align: left&quot;&gt;&lt;b&gt;Диаграмма Действий&lt;/b&gt;&lt;/p&gt;" style="html=1;strokeWidth=1;shape=mxgraph.sysml.package;html=1;overflow=fill;whiteSpace=wrap;fillColor=none;gradientColor=none;fontSize=12;align=center;labelX=327.64;" parent="1" vertex="1">
          <mxGeometry x="845" y="390" width="965" height="400" as="geometry" />
        </mxCell>
        <mxCell id="sH2pxMloMPdZ7_B7iQQL-7" style="edgeStyle=orthogonalEdgeStyle;rounded=0;orthogonalLoop=1;jettySize=auto;html=1;" edge="1" parent="1" source="sH2pxMloMPdZ7_B7iQQL-1" target="sH2pxMloMPdZ7_B7iQQL-2">
          <mxGeometry relative="1" as="geometry" />
        </mxCell>
        <mxCell id="sH2pxMloMPdZ7_B7iQQL-35" style="edgeStyle=orthogonalEdgeStyle;rounded=0;orthogonalLoop=1;jettySize=auto;html=1;" edge="1" parent="1" source="sH2pxMloMPdZ7_B7iQQL-1" target="sH2pxMloMPdZ7_B7iQQL-34">
          <mxGeometry relative="1" as="geometry" />
        </mxCell>
        <mxCell id="sH2pxMloMPdZ7_B7iQQL-1" value="Загрузка данных" style="html=1;whiteSpace=wrap;" vertex="1" parent="1">
          <mxGeometry x="877" y="480" width="110" height="50" as="geometry" />
        </mxCell>
        <mxCell id="sH2pxMloMPdZ7_B7iQQL-8" style="edgeStyle=orthogonalEdgeStyle;rounded=0;orthogonalLoop=1;jettySize=auto;html=1;entryX=0;entryY=0.5;entryDx=0;entryDy=0;" edge="1" parent="1" source="sH2pxMloMPdZ7_B7iQQL-2" target="sH2pxMloMPdZ7_B7iQQL-5">
          <mxGeometry relative="1" as="geometry" />
        </mxCell>
        <mxCell id="sH2pxMloMPdZ7_B7iQQL-13" style="edgeStyle=orthogonalEdgeStyle;rounded=0;orthogonalLoop=1;jettySize=auto;html=1;entryX=0.461;entryY=-0.008;entryDx=0;entryDy=0;entryPerimeter=0;" edge="1" parent="1" source="sH2pxMloMPdZ7_B7iQQL-2" target="sH2pxMloMPdZ7_B7iQQL-12">
          <mxGeometry relative="1" as="geometry">
            <mxPoint x="1110" y="577" as="targetPoint" />
            <Array as="points" />
          </mxGeometry>
        </mxCell>
        <mxCell id="sH2pxMloMPdZ7_B7iQQL-2" value="Обработка данных" style="html=1;whiteSpace=wrap;" vertex="1" parent="1">
          <mxGeometry x="1060" y="480" width="110" height="50" as="geometry" />
        </mxCell>
        <mxCell id="sH2pxMloMPdZ7_B7iQQL-11" style="edgeStyle=orthogonalEdgeStyle;rounded=0;orthogonalLoop=1;jettySize=auto;html=1;" edge="1" parent="1" source="sH2pxMloMPdZ7_B7iQQL-16" target="sH2pxMloMPdZ7_B7iQQL-10">
          <mxGeometry relative="1" as="geometry" />
        </mxCell>
        <mxCell id="sH2pxMloMPdZ7_B7iQQL-17" style="edgeStyle=orthogonalEdgeStyle;rounded=0;orthogonalLoop=1;jettySize=auto;html=1;entryX=0;entryY=0.5;entryDx=0;entryDy=0;" edge="1" parent="1" source="sH2pxMloMPdZ7_B7iQQL-4" target="sH2pxMloMPdZ7_B7iQQL-16">
          <mxGeometry relative="1" as="geometry" />
        </mxCell>
        <mxCell id="sH2pxMloMPdZ7_B7iQQL-4" value="Проверка пар на сходство" style="html=1;whiteSpace=wrap;" vertex="1" parent="1">
          <mxGeometry x="1400" y="480" width="110" height="50" as="geometry" />
        </mxCell>
        <mxCell id="sH2pxMloMPdZ7_B7iQQL-9" style="edgeStyle=orthogonalEdgeStyle;rounded=0;orthogonalLoop=1;jettySize=auto;html=1;entryX=0;entryY=0.5;entryDx=0;entryDy=0;" edge="1" parent="1" target="sH2pxMloMPdZ7_B7iQQL-4">
          <mxGeometry relative="1" as="geometry">
            <mxPoint x="1370" y="505" as="sourcePoint" />
            <Array as="points">
              <mxPoint x="1350" y="505" />
              <mxPoint x="1350" y="505" />
            </Array>
          </mxGeometry>
        </mxCell>
        <mxCell id="sH2pxMloMPdZ7_B7iQQL-5" value="Выбор фичей и метрик для сравнения" style="html=1;whiteSpace=wrap;" vertex="1" parent="1">
          <mxGeometry x="1240" y="480" width="110" height="50" as="geometry" />
        </mxCell>
        <mxCell id="sH2pxMloMPdZ7_B7iQQL-10" value="Оценка качества" style="html=1;whiteSpace=wrap;" vertex="1" parent="1">
          <mxGeometry x="1690" y="480" width="110" height="50" as="geometry" />
        </mxCell>
        <mxCell id="sH2pxMloMPdZ7_B7iQQL-12" value="&lt;p style=&quot;margin: 4px 0px 0px; text-align: center; text-decoration: underline; line-height: 170%;&quot;&gt;&lt;/p&gt;&lt;p style=&quot;margin:0px;margin-left:8px;&quot;&gt;1) Регулярные выражения для дат, номеров, адресов&lt;/p&gt;&lt;p style=&quot;margin:0px;margin-left:8px;&quot;&gt;&lt;br&gt;&lt;/p&gt;&lt;p style=&quot;margin:0px;margin-left:8px;&quot;&gt;2) Обработка пробелов&lt;/p&gt;&lt;p style=&quot;margin:0px;margin-left:8px;&quot;&gt;&lt;br&gt;&lt;/p&gt;&lt;p style=&quot;margin:0px;margin-left:8px;&quot;&gt;3) Удаление дубликатов&lt;/p&gt;&lt;p style=&quot;margin: 0px 0px 0px 8px; font-size: 11px; padding-top: 0px;&quot;&gt;&amp;nbsp; &amp;nbsp; &lt;font style=&quot;font-size: 11px;&quot;&gt;3.1) Фильтр схожих строк&lt;/font&gt;&lt;/p&gt;&lt;p style=&quot;margin: 0px 0px 0px 8px; font-size: 11px;&quot;&gt;&lt;font style=&quot;font-size: 11px;&quot;&gt;&amp;nbsp; &amp;nbsp; 3.2) Выбор дубликатов &lt;span style=&quot;white-space: pre;&quot;&gt;&#x9;&lt;/span&gt;и удаление их&lt;/font&gt;&lt;/p&gt;&lt;p style=&quot;margin: 0px 0px 0px 8px; font-size: 11px;&quot;&gt;&lt;br&gt;&lt;/p&gt;&lt;p style=&quot;margin:0px;margin-left:8px;&quot;&gt;&lt;br&gt;&lt;/p&gt;&lt;p style=&quot;margin:0px;margin-left:8px;&quot;&gt;&lt;br&gt;&lt;/p&gt;" style="verticalAlign=top;align=left;overflow=fill;html=1;whiteSpace=wrap;" vertex="1" parent="1">
          <mxGeometry x="1042.5" y="580" width="157.5" height="140" as="geometry" />
        </mxCell>
        <mxCell id="sH2pxMloMPdZ7_B7iQQL-14" value="&lt;p style=&quot;margin: 4px 0px 0px; text-align: center; text-decoration: underline; line-height: 170%;&quot;&gt;&lt;/p&gt;&lt;p style=&quot;margin:0px;margin-left:8px;&quot;&gt;&lt;span style=&quot;font-size: 11px; background-color: initial;&quot;&gt;1) Фильтр схожих строк&lt;/span&gt;&lt;/p&gt;&lt;p style=&quot;margin: 0px 0px 0px 8px; font-size: 11px;&quot;&gt;&lt;font style=&quot;font-size: 11px;&quot;&gt;2) Выбор схожих строк с помощью метрик&lt;/font&gt;&lt;/p&gt;&lt;p style=&quot;margin: 0px 0px 0px 8px; font-size: 11px;&quot;&gt;&lt;br&gt;&lt;/p&gt;&lt;p style=&quot;margin:0px;margin-left:8px;&quot;&gt;&lt;br&gt;&lt;/p&gt;&lt;p style=&quot;margin:0px;margin-left:8px;&quot;&gt;&lt;br&gt;&lt;/p&gt;" style="verticalAlign=top;align=left;overflow=fill;html=1;whiteSpace=wrap;" vertex="1" parent="1">
          <mxGeometry x="1375" y="580" width="160" height="50" as="geometry" />
        </mxCell>
        <mxCell id="sH2pxMloMPdZ7_B7iQQL-15" style="edgeStyle=orthogonalEdgeStyle;rounded=0;orthogonalLoop=1;jettySize=auto;html=1;" edge="1" parent="1">
          <mxGeometry relative="1" as="geometry">
            <mxPoint x="1454.57" y="530" as="sourcePoint" />
            <mxPoint x="1454.57" y="580" as="targetPoint" />
          </mxGeometry>
        </mxCell>
        <mxCell id="sH2pxMloMPdZ7_B7iQQL-18" value="&lt;p style=&quot;margin: 0px ; margin-top: 4px ; margin-left: 10px ; text-align: left&quot;&gt;&lt;b&gt;Диаграмма Структуры&lt;/b&gt;&lt;/p&gt;" style="html=1;strokeWidth=1;shape=mxgraph.sysml.package;html=1;overflow=fill;whiteSpace=wrap;fillColor=none;gradientColor=none;fontSize=12;align=center;labelX=327.64;" vertex="1" parent="1">
          <mxGeometry x="845" y="870" width="585" height="350" as="geometry" />
        </mxCell>
        <mxCell id="sH2pxMloMPdZ7_B7iQQL-19" style="edgeStyle=orthogonalEdgeStyle;rounded=0;orthogonalLoop=1;jettySize=auto;html=1;" edge="1" parent="1" source="sH2pxMloMPdZ7_B7iQQL-20" target="sH2pxMloMPdZ7_B7iQQL-23">
          <mxGeometry relative="1" as="geometry" />
        </mxCell>
        <mxCell id="sH2pxMloMPdZ7_B7iQQL-20" value="Loader" style="html=1;whiteSpace=wrap;" vertex="1" parent="1">
          <mxGeometry x="910" y="960" width="110" height="50" as="geometry" />
        </mxCell>
        <mxCell id="sH2pxMloMPdZ7_B7iQQL-21" style="edgeStyle=orthogonalEdgeStyle;rounded=0;orthogonalLoop=1;jettySize=auto;html=1;entryX=0;entryY=0.5;entryDx=0;entryDy=0;" edge="1" parent="1" source="sH2pxMloMPdZ7_B7iQQL-23" target="sH2pxMloMPdZ7_B7iQQL-28">
          <mxGeometry relative="1" as="geometry" />
        </mxCell>
        <mxCell id="sH2pxMloMPdZ7_B7iQQL-23" value="Data Preprocessing" style="html=1;whiteSpace=wrap;" vertex="1" parent="1">
          <mxGeometry x="910" y="1070" width="110" height="50" as="geometry" />
        </mxCell>
        <mxCell id="sH2pxMloMPdZ7_B7iQQL-25" style="edgeStyle=orthogonalEdgeStyle;rounded=0;orthogonalLoop=1;jettySize=auto;html=1;entryX=0;entryY=0.5;entryDx=0;entryDy=0;" edge="1" parent="1" source="sH2pxMloMPdZ7_B7iQQL-26" target="sH2pxMloMPdZ7_B7iQQL-33">
          <mxGeometry relative="1" as="geometry" />
        </mxCell>
        <mxCell id="sH2pxMloMPdZ7_B7iQQL-26" value="Clasterizator" style="html=1;whiteSpace=wrap;" vertex="1" parent="1">
          <mxGeometry x="1080" y="960" width="110" height="50" as="geometry" />
        </mxCell>
        <mxCell id="sH2pxMloMPdZ7_B7iQQL-27" style="edgeStyle=orthogonalEdgeStyle;rounded=0;orthogonalLoop=1;jettySize=auto;html=1;entryX=0.5;entryY=1;entryDx=0;entryDy=0;" edge="1" parent="1" source="sH2pxMloMPdZ7_B7iQQL-28" target="sH2pxMloMPdZ7_B7iQQL-26">
          <mxGeometry relative="1" as="geometry" />
        </mxCell>
        <mxCell id="sH2pxMloMPdZ7_B7iQQL-28" value="Feature Selector" style="html=1;whiteSpace=wrap;" vertex="1" parent="1">
          <mxGeometry x="1080" y="1070" width="110" height="50" as="geometry" />
        </mxCell>
        <mxCell id="sH2pxMloMPdZ7_B7iQQL-33" value="Evaluation" style="html=1;whiteSpace=wrap;" vertex="1" parent="1">
          <mxGeometry x="1250" y="960" width="110" height="50" as="geometry" />
        </mxCell>
        <mxCell id="sH2pxMloMPdZ7_B7iQQL-34" value="&lt;p style=&quot;margin: 4px 0px 0px; text-align: center; text-decoration: underline; line-height: 170%;&quot;&gt;&lt;/p&gt;&lt;p style=&quot;margin:0px;margin-left:8px;&quot;&gt;1) Разбиение на chunks&lt;/p&gt;&lt;p style=&quot;margin:0px;margin-left:8px;&quot;&gt;&lt;span style=&quot;background-color: initial;&quot;&gt;&lt;br&gt;&lt;/span&gt;&lt;/p&gt;&lt;p style=&quot;margin:0px;margin-left:8px;&quot;&gt;&lt;span style=&quot;background-color: initial;&quot;&gt;2) Параллельное считывание&lt;/span&gt;&lt;br&gt;&lt;/p&gt;&lt;p style=&quot;margin:0px;margin-left:8px;&quot;&gt;&lt;br&gt;&lt;/p&gt;&lt;p style=&quot;margin:0px;margin-left:8px;&quot;&gt;&lt;br&gt;&lt;/p&gt;" style="verticalAlign=top;align=left;overflow=fill;html=1;whiteSpace=wrap;" vertex="1" parent="1">
          <mxGeometry x="859.5" y="580" width="145" height="70" as="geometry" />
        </mxCell>
        <mxCell id="sH2pxMloMPdZ7_B7iQQL-36" value="" style="edgeStyle=orthogonalEdgeStyle;rounded=0;orthogonalLoop=1;jettySize=auto;html=1;" edge="1" parent="1" source="sH2pxMloMPdZ7_B7iQQL-4" target="sH2pxMloMPdZ7_B7iQQL-16">
          <mxGeometry relative="1" as="geometry">
            <mxPoint x="1510" y="505" as="sourcePoint" />
            <mxPoint x="1690" y="505" as="targetPoint" />
          </mxGeometry>
        </mxCell>
        <mxCell id="sH2pxMloMPdZ7_B7iQQL-16" value="Слияние схожих строк" style="html=1;whiteSpace=wrap;" vertex="1" parent="1">
          <mxGeometry x="1540" y="480" width="110" height="50" as="geometry" />
        </mxCell>
        <mxCell id="sH2pxMloMPdZ7_B7iQQL-37" value="&lt;p style=&quot;margin: 0px ; margin-top: 4px ; margin-left: 10px ; text-align: left&quot;&gt;&lt;b&gt;Алгоритмы, библиотеки, метрики&lt;/b&gt;&lt;/p&gt;" style="html=1;strokeWidth=1;shape=mxgraph.sysml.package;html=1;overflow=fill;whiteSpace=wrap;fillColor=none;gradientColor=none;fontSize=12;align=center;labelX=327.64;" vertex="1" parent="1">
          <mxGeometry x="1880" y="390" width="585" height="400" as="geometry" />
        </mxCell>
        <mxCell id="sH2pxMloMPdZ7_B7iQQL-47" value="Фильтрация" style="swimlane;fontStyle=0;childLayout=stackLayout;horizontal=1;startSize=26;horizontalStack=0;resizeParent=1;resizeParentMax=0;resizeLast=0;collapsible=1;marginBottom=0;align=center;fontSize=14;" vertex="1" parent="1">
          <mxGeometry x="1910" y="430" width="160" height="116" as="geometry" />
        </mxCell>
        <mxCell id="sH2pxMloMPdZ7_B7iQQL-48" value="LSH Алгоритм" style="text;strokeColor=none;fillColor=none;spacingLeft=4;spacingRight=4;overflow=hidden;rotatable=0;points=[[0,0.5],[1,0.5]];portConstraint=eastwest;fontSize=12;whiteSpace=wrap;html=1;" vertex="1" parent="sH2pxMloMPdZ7_B7iQQL-47">
          <mxGeometry y="26" width="160" height="30" as="geometry" />
        </mxCell>
        <mxCell id="sH2pxMloMPdZ7_B7iQQL-49" value="lib&amp;nbsp;" style="text;strokeColor=none;fillColor=none;spacingLeft=4;spacingRight=4;overflow=hidden;rotatable=0;points=[[0,0.5],[1,0.5]];portConstraint=eastwest;fontSize=12;whiteSpace=wrap;html=1;" vertex="1" parent="sH2pxMloMPdZ7_B7iQQL-47">
          <mxGeometry y="56" width="160" height="30" as="geometry" />
        </mxCell>
        <mxCell id="sH2pxMloMPdZ7_B7iQQL-50" value="lib&amp;nbsp;" style="text;strokeColor=none;fillColor=none;spacingLeft=4;spacingRight=4;overflow=hidden;rotatable=0;points=[[0,0.5],[1,0.5]];portConstraint=eastwest;fontSize=12;whiteSpace=wrap;html=1;" vertex="1" parent="sH2pxMloMPdZ7_B7iQQL-47">
          <mxGeometry y="86" width="160" height="30" as="geometry" />
        </mxCell>
        <mxCell id="sH2pxMloMPdZ7_B7iQQL-51" value="Параллельные &#xa;вычисления" style="swimlane;fontStyle=0;childLayout=stackLayout;horizontal=1;startSize=40;horizontalStack=0;resizeParent=1;resizeParentMax=0;resizeLast=0;collapsible=1;marginBottom=0;align=center;fontSize=14;" vertex="1" parent="1">
          <mxGeometry x="2140" y="430" width="160" height="130" as="geometry" />
        </mxCell>
        <mxCell id="sH2pxMloMPdZ7_B7iQQL-52" value="lib Multiprocessing&amp;nbsp;" style="text;strokeColor=none;fillColor=none;spacingLeft=4;spacingRight=4;overflow=hidden;rotatable=0;points=[[0,0.5],[1,0.5]];portConstraint=eastwest;fontSize=12;whiteSpace=wrap;html=1;" vertex="1" parent="sH2pxMloMPdZ7_B7iQQL-51">
          <mxGeometry y="40" width="160" height="30" as="geometry" />
        </mxCell>
        <mxCell id="sH2pxMloMPdZ7_B7iQQL-53" value="Item 2" style="text;strokeColor=none;fillColor=none;spacingLeft=4;spacingRight=4;overflow=hidden;rotatable=0;points=[[0,0.5],[1,0.5]];portConstraint=eastwest;fontSize=12;whiteSpace=wrap;html=1;" vertex="1" parent="sH2pxMloMPdZ7_B7iQQL-51">
          <mxGeometry y="70" width="160" height="30" as="geometry" />
        </mxCell>
        <mxCell id="sH2pxMloMPdZ7_B7iQQL-54" value="Item 3" style="text;strokeColor=none;fillColor=none;spacingLeft=4;spacingRight=4;overflow=hidden;rotatable=0;points=[[0,0.5],[1,0.5]];portConstraint=eastwest;fontSize=12;whiteSpace=wrap;html=1;" vertex="1" parent="sH2pxMloMPdZ7_B7iQQL-51">
          <mxGeometry y="100" width="160" height="30" as="geometry" />
        </mxCell>
        <mxCell id="sH2pxMloMPdZ7_B7iQQL-55" value="Метрики" style="swimlane;fontStyle=0;childLayout=stackLayout;horizontal=1;startSize=40;horizontalStack=0;resizeParent=1;resizeParentMax=0;resizeLast=0;collapsible=1;marginBottom=0;align=center;fontSize=14;" vertex="1" parent="1">
          <mxGeometry x="1910" y="600" width="160" height="140" as="geometry" />
        </mxCell>
        <mxCell id="sH2pxMloMPdZ7_B7iQQL-56" value="Levenshtein-Damerau distance" style="text;strokeColor=none;fillColor=none;spacingLeft=4;spacingRight=4;overflow=hidden;rotatable=0;points=[[0,0.5],[1,0.5]];portConstraint=eastwest;fontSize=12;whiteSpace=wrap;html=1;" vertex="1" parent="sH2pxMloMPdZ7_B7iQQL-55">
          <mxGeometry y="40" width="160" height="40" as="geometry" />
        </mxCell>
        <mxCell id="sH2pxMloMPdZ7_B7iQQL-57" value="Jaro-Winkler distance" style="text;strokeColor=none;fillColor=none;spacingLeft=4;spacingRight=4;overflow=hidden;rotatable=0;points=[[0,0.5],[1,0.5]];portConstraint=eastwest;fontSize=12;whiteSpace=wrap;html=1;" vertex="1" parent="sH2pxMloMPdZ7_B7iQQL-55">
          <mxGeometry y="80" width="160" height="30" as="geometry" />
        </mxCell>
        <mxCell id="sH2pxMloMPdZ7_B7iQQL-58" value="Item 3" style="text;strokeColor=none;fillColor=none;spacingLeft=4;spacingRight=4;overflow=hidden;rotatable=0;points=[[0,0.5],[1,0.5]];portConstraint=eastwest;fontSize=12;whiteSpace=wrap;html=1;" vertex="1" parent="sH2pxMloMPdZ7_B7iQQL-55">
          <mxGeometry y="110" width="160" height="30" as="geometry" />
        </mxCell>
      </root>
    </mxGraphModel>
  </diagram>
</mxfile>
